<svg width="19" height="19" viewBox="0 0 19 19" fill="none" xmlns="http://www.w3.org/2000/svg">
<path d="M17.0447 16.2053L14.1472 13.3078C15.1962 12.0649 15.8335 10.461 15.8335 8.70825C15.8335 4.77367 12.6431 1.58325 8.7085 1.58325C4.77391 1.58325 1.5835 4.77367 1.5835 8.70825C1.5835 12.6428 4.77391 15.8333 8.7085 15.8333C10.462 15.8333 12.0652 15.1968 13.3065 14.147L16.204 17.0445C16.3204 17.1601 16.4732 17.2187 16.6236 17.2187C16.774 17.2187 16.9284 17.1609 17.0432 17.0445C17.2767 16.8125 17.2767 16.4373 17.0447 16.2053ZM2.771 8.70825C2.771 5.43471 5.43495 2.77075 8.7085 2.77075C11.982 2.77075 14.646 5.43471 14.646 8.70825C14.646 11.9818 11.982 14.6458 8.7085 14.6458C5.43495 14.6458 2.771 11.9818 2.771 8.70825Z" fill="#737373"/>
</svg>
